<svg version="1.1" id="Layer_1" xmlns="http://www.w3.org/2000/svg" xmlns:xlink="http://www.w3.org/1999/xlink" x="0px" y="0px"
	 width="100%" viewBox="0 0 1510 1140" enable-background="new 0 0 1510 1140" xml:space="preserve">
<path fill="#FFFFFF" opacity="1.000000" stroke="none" 
	d="
M931.000000,1141.000000 
	C620.666687,1141.000000 310.833344,1141.000000 1.000000,1141.000000 
	C1.000000,761.000000 1.000000,381.000000 1.000000,1.000000 
	C504.333344,1.000000 1007.666687,1.000000 1511.000000,1.000000 
	C1511.000000,381.000000 1511.000000,761.000000 1511.000000,1141.000000 
	C1317.833374,1141.000000 1124.666626,1141.000000 931.000000,1141.000000 
M956.499939,1027.167969 
	C1076.659424,1027.167969 1196.818970,1027.186890 1316.978516,1027.155396 
	C1349.688232,1027.146851 1373.694702,1003.068787 1373.695923,970.394287 
	C1373.703003,787.738037 1373.838745,605.081482 1373.481323,422.425903 
	C1373.446045,404.366913 1371.649414,386.086487 1368.484375,368.297760 
	C1355.443115,295.000641 1321.532715,232.690491 1266.675903,182.288498 
	C1204.148071,124.838318 1129.960938,94.713539 1045.160400,94.540001 
	C745.012085,93.925735 444.861694,94.294418 144.712082,94.309776 
	C112.720062,94.311417 88.310707,118.602173 88.308167,150.490631 
	C88.286423,424.141754 88.291199,697.792847 88.341492,971.443970 
	C88.342194,975.249695 88.678658,979.128967 89.455719,982.849182 
	C95.035812,1009.563538 117.172394,1027.163696 145.045959,1027.164307 
	C415.197266,1027.170532 685.348572,1027.167969 956.499939,1027.167969 
z"/>
<path fill="#000000" opacity="1.000000" stroke="none" 
	d="
M955.999878,1027.167969 
	C685.348572,1027.167969 415.197266,1027.170532 145.045959,1027.164307 
	C117.172394,1027.163696 95.035812,1009.563538 89.455719,982.849182 
	C88.678658,979.128967 88.342194,975.249695 88.341492,971.443970 
	C88.291199,697.792847 88.286423,424.141754 88.308167,150.490631 
	C88.310707,118.602173 112.720062,94.311417 144.712082,94.309776 
	C444.861694,94.294418 745.012085,93.925735 1045.160400,94.540001 
	C1129.960938,94.713539 1204.148071,124.838318 1266.675903,182.288498 
	C1321.532715,232.690491 1355.443115,295.000641 1368.484375,368.297760 
	C1371.649414,386.086487 1373.446045,404.366913 1373.481323,422.425903 
	C1373.838745,605.081482 1373.703003,787.738037 1373.695923,970.394287 
	C1373.694702,1003.068787 1349.688232,1027.146851 1316.978516,1027.155396 
	C1196.818970,1027.186890 1076.659424,1027.167969 955.999878,1027.167969 
M228.500000,958.070251 
	C293.814545,958.070251 359.129089,958.070251 424.443634,958.070190 
	C452.602264,958.070190 480.760925,958.084839 508.919556,958.059326 
	C515.667480,958.053223 520.817261,954.967712 522.626099,949.307373 
	C523.565857,946.366638 523.786804,943.093506 523.787903,939.970337 
	C523.841003,793.178833 523.834656,646.387390 523.828918,499.595886 
	C523.828796,497.597778 523.771057,495.599030 523.705444,493.601685 
	C522.319092,451.377319 489.074036,419.105530 446.803802,419.083954 
	C367.159851,419.043304 287.515869,419.069092 207.871918,419.088623 
	C205.714005,419.089142 203.518951,419.123779 201.404251,419.498413 
	C186.775208,422.089813 178.077118,433.357880 178.076431,449.677155 
	C178.069504,613.463806 178.072220,777.250427 178.072311,941.037048 
	C178.072311,941.870178 178.049454,942.704102 178.078293,943.536255 
	C178.389130,952.508179 184.010422,958.021790 193.009872,958.058716 
	C204.506393,958.105774 216.003281,958.070190 228.500000,958.070251 
M592.835083,906.500000 
	C592.835083,917.997620 592.828186,929.495239 592.836975,940.992859 
	C592.846497,953.377747 597.584290,958.068909 610.078735,958.069153 
	C702.226318,958.070801 794.373840,958.070496 886.521423,958.069641 
	C898.980652,958.069519 903.832947,953.275330 903.833069,940.960022 
	C903.834167,824.650757 903.878784,708.341492 903.744751,592.032410 
	C903.734436,583.071167 903.059875,574.018433 901.683594,565.165344 
	C888.720337,481.778564 816.787781,419.646820 732.594910,419.111206 
	C695.604065,418.875916 658.610291,419.022034 621.618408,419.150238 
	C618.028748,419.162689 614.260559,419.763977 610.888062,420.967926 
	C598.985168,425.217194 592.838318,435.211304 592.837891,449.594452 
	C592.833374,601.562988 592.835083,753.531494 592.835083,906.500000 
M1283.927612,708.506958 
	C1282.166016,689.464905 1282.095703,670.083130 1278.351074,651.439453 
	C1261.899536,569.531677 1217.769897,506.133087 1147.049805,461.715942 
	C1101.565796,433.148987 1051.485962,419.525482 997.826050,419.107330 
	C983.377136,418.994720 972.951233,429.250580 972.948730,443.388641 
	C972.919250,610.054382 972.924561,776.720093 972.943726,943.385803 
	C972.944763,952.481628 978.457764,958.047485 987.551636,958.050476 
	C1081.551147,958.081543 1175.550537,958.091064 1269.549927,957.964661 
	C1272.371826,957.960815 1275.546387,956.971436 1277.939575,955.462769 
	C1283.130737,952.190125 1283.971680,946.786194 1283.967163,941.003418 
	C1283.908081,863.837219 1283.927612,786.670959 1283.927612,708.506958 
z"/>
<path fill="#001AFF" opacity="1.000000" stroke="none" 
	d="
M228.000000,958.070251 
	C216.003281,958.070190 204.506393,958.105774 193.009872,958.058716 
	C184.010422,958.021790 178.389130,952.508179 178.078293,943.536255 
	C178.049454,942.704102 178.072311,941.870178 178.072311,941.037048 
	C178.072220,777.250427 178.069504,613.463806 178.076431,449.677155 
	C178.077118,433.357880 186.775208,422.089813 201.404251,419.498413 
	C203.518951,419.123779 205.714005,419.089142 207.871918,419.088623 
	C287.515869,419.069092 367.159851,419.043304 446.803802,419.083954 
	C489.074036,419.105530 522.319092,451.377319 523.705444,493.601685 
	C523.771057,495.599030 523.828796,497.597778 523.828918,499.595886 
	C523.834656,646.387390 523.841003,793.178833 523.787903,939.970337 
	C523.786804,943.093506 523.565857,946.366638 522.626099,949.307373 
	C520.817261,954.967712 515.667480,958.053223 508.919556,958.059326 
	C480.760925,958.084839 452.602264,958.070190 424.443634,958.070190 
	C359.129089,958.070251 293.814545,958.070251 228.000000,958.070251 
z"/>
<path fill="#F5002C" opacity="1.000000" stroke="none" 
	d="
M592.835083,906.000000 
	C592.835083,753.531494 592.833374,601.562988 592.837891,449.594452 
	C592.838318,435.211304 598.985168,425.217194 610.888062,420.967926 
	C614.260559,419.763977 618.028748,419.162689 621.618408,419.150238 
	C658.610291,419.022034 695.604065,418.875916 732.594910,419.111206 
	C816.787781,419.646820 888.720337,481.778564 901.683594,565.165344 
	C903.059875,574.018433 903.734436,583.071167 903.744751,592.032410 
	C903.878784,708.341492 903.834167,824.650757 903.833069,940.960022 
	C903.832947,953.275330 898.980652,958.069519 886.521423,958.069641 
	C794.373840,958.070496 702.226318,958.070801 610.078735,958.069153 
	C597.584290,958.068909 592.846497,953.377747 592.836975,940.992859 
	C592.828186,929.495239 592.835083,917.997620 592.835083,906.000000 
z"/>
<path fill="#00E941" opacity="1.000000" stroke="none" 
	d="
M1283.927612,709.005859 
	C1283.927612,786.670959 1283.908081,863.837219 1283.967163,941.003418 
	C1283.971680,946.786194 1283.130737,952.190125 1277.939575,955.462769 
	C1275.546387,956.971436 1272.371826,957.960815 1269.549927,957.964661 
	C1175.550537,958.091064 1081.551147,958.081543 987.551636,958.050476 
	C978.457764,958.047485 972.944763,952.481628 972.943726,943.385803 
	C972.924561,776.720093 972.919250,610.054382 972.948730,443.388641 
	C972.951233,429.250580 983.377136,418.994720 997.826050,419.107330 
	C1051.485962,419.525482 1101.565796,433.148987 1147.049805,461.715942 
	C1217.769897,506.133087 1261.899536,569.531677 1278.351074,651.439453 
	C1282.095703,670.083130 1282.166016,689.464905 1283.927612,709.005859 
z"/>
</svg>